<svg width="32" height="35" viewBox="0 0 32 35" fill="none" xmlns="http://www.w3.org/2000/svg">
<path d="M10.53 7.06788H1.25V29.1758H5.11667H10.53H26.77H30.25V7.06788H21.3567M10.53 7.06788V1.25H21.3567V7.06788M10.53 7.06788H21.3567" stroke="#FF383C" stroke-width="2.5" stroke-linejoin="round"/>
<path d="M7.75 28.75C9.48194 28.75 10.75 29.9388 10.75 31.25C10.75 32.5612 9.48194 33.75 7.75 33.75C6.01806 33.75 4.75 32.5612 4.75 31.25C4.75 29.9388 6.01806 28.75 7.75 28.75Z" fill="#FF383C" stroke="#FF383C"/>
<path d="M24.75 28.75C26.4819 28.75 27.75 29.9388 27.75 31.25C27.75 32.5612 26.4819 33.75 24.75 33.75C23.0181 33.75 21.75 32.5612 21.75 31.25C21.75 29.9388 23.0181 28.75 24.75 28.75Z" fill="#FF383C" stroke="#FF383C"/>
</svg>
