<svg width="80" height="67" viewBox="0 0 80 67" fill="none" xmlns="http://www.w3.org/2000/svg">
<path fill-rule="evenodd" clip-rule="evenodd" d="M39 26.375V55.625C39 56.9179 38.4864 58.1579 37.5721 59.0721C36.6579 59.9864 35.4179 60.5 34.125 60.5H17.875C16.5821 60.5 15.3421 59.9864 14.4279 59.0721C13.5136 58.1579 13 56.9179 13 55.625V26.375C13 25.0821 13.5136 23.8421 14.4279 22.9279C15.3421 22.0136 16.5821 21.5 17.875 21.5H34.125C35.4179 21.5 36.6579 22.0136 37.5721 22.9279C38.4864 23.8421 39 25.0821 39 26.375ZM34.125 16.625C36.7109 16.625 39.1908 17.6522 41.0193 19.4807C42.8478 21.3092 43.875 23.7891 43.875 26.375V55.625C43.875 58.2109 42.8478 60.6908 41.0193 62.5193C39.1908 64.3478 36.7109 65.375 34.125 65.375H17.875C15.2891 65.375 12.8092 64.3478 10.9807 62.5193C9.15223 60.6908 8.125 58.2109 8.125 55.625V26.375C8.125 23.7891 9.15223 21.3092 10.9807 19.4807C12.8092 17.6522 15.2891 16.625 17.875 16.625H34.125ZM20.3125 50.75C19.666 50.75 19.046 51.0068 18.5889 51.4639C18.1318 51.921 17.875 52.541 17.875 53.1875C17.875 53.834 18.1318 54.454 18.5889 54.9111C19.046 55.3682 19.666 55.625 20.3125 55.625H31.6875C32.334 55.625 32.954 55.3682 33.4111 54.9111C33.8682 54.454 34.125 53.834 34.125 53.1875C34.125 52.541 33.8682 51.921 33.4111 51.4639C32.954 51.0068 32.334 50.75 31.6875 50.75H20.3125Z" fill="#FF383C"/>
<path d="M48.7139 52.7139C49.171 52.2568 49.791 52 50.4375 52H61.8125C62.459 52 63.079 52.2568 63.5361 52.7139C63.9932 53.171 64.25 53.791 64.25 54.4375C64.25 55.084 63.9932 55.704 63.5361 56.1611C63.079 56.6182 62.459 56.875 61.8125 56.875H50.4375C49.791 56.875 49.171 56.6182 48.7139 56.1611C48.2568 55.704 48 55.084 48 54.4375C48 53.791 48.2568 53.171 48.7139 52.7139Z" fill="#FF383C"/>
<path fill-rule="evenodd" clip-rule="evenodd" d="M50.5 43.1818L65.4 43.1818C67.3361 43.1818 69.1929 42.4635 70.5619 41.1848C71.9309 39.9062 72.7 38.1719 72.7 36.3636L72.7 13.6364C72.7 11.8281 71.9309 10.0938 70.5619 8.81518C69.1929 7.53653 67.3361 6.81818 65.4 6.81818L21.6 6.81818C19.6639 6.81818 17.8071 7.53653 16.4381 8.81519C15.0691 10.0938 14 11.1917 14 13C14 13 14 15 10.5 15C7.5 15 7 13 7 13C7 9.38341 8.53821 6.55132 11.2762 3.994C14.0143 1.43669 17.7278 3.34577e-06 21.6 3.17651e-06L65.4 1.26195e-06C69.2722 1.09269e-06 72.9857 1.43669 75.7238 3.994C78.4618 6.55131 80 10.0198 80 13.6364L80 36.3636C80 39.9802 78.4618 43.4487 75.7238 46.006C72.9857 48.5633 69.2722 50 65.4 50L50.5 50C50.5 50 48 49.5 48 46.5C48 43.5 50.5 43.1818 50.5 43.1818Z" fill="#FF383C"/>
</svg>
