<svg width="70" height="50" viewBox="0 0 70 50" fill="none" xmlns="http://www.w3.org/2000/svg">
<rect width="70" height="50" rx="8" fill="#FF383C"/>
<path d="M21.4512 24.1348V25.9053C21.4512 26.6344 21.3691 27.2656 21.2051 27.7988C21.0456 28.332 20.8132 28.7718 20.5078 29.1182C20.207 29.4645 19.847 29.722 19.4277 29.8906C19.013 30.0547 18.5527 30.1367 18.0469 30.1367C17.6413 30.1367 17.263 30.0843 16.9121 29.9795C16.5612 29.8747 16.2445 29.7129 15.9619 29.4941C15.6839 29.2708 15.4447 28.9928 15.2441 28.6602C15.0436 28.3275 14.8887 27.931 14.7793 27.4707C14.6745 27.0104 14.6221 26.4886 14.6221 25.9053V24.1348C14.6221 23.3965 14.7018 22.763 14.8613 22.2344C15.0254 21.7057 15.2601 21.2682 15.5654 20.9219C15.8708 20.5755 16.2308 20.3203 16.6455 20.1562C17.0648 19.9922 17.5273 19.9102 18.0332 19.9102C18.4388 19.9102 18.8148 19.9626 19.1611 20.0674C19.512 20.1722 19.8288 20.334 20.1113 20.5527C20.3939 20.7715 20.6331 21.0472 20.8291 21.3799C21.0296 21.7126 21.1823 22.109 21.2871 22.5693C21.3965 23.0251 21.4512 23.5469 21.4512 24.1348ZM19.3184 26.1719V23.8545C19.3184 23.5127 19.2979 23.2165 19.2568 22.9658C19.2204 22.7106 19.1657 22.4941 19.0928 22.3164C19.0244 22.1387 18.9378 21.9951 18.833 21.8857C18.7282 21.7764 18.6074 21.6966 18.4707 21.6465C18.3385 21.5918 18.1927 21.5645 18.0332 21.5645C17.8327 21.5645 17.6527 21.6055 17.4932 21.6875C17.3337 21.7695 17.1992 21.8994 17.0898 22.0771C16.9805 22.2503 16.8962 22.485 16.8369 22.7812C16.7822 23.0729 16.7549 23.4307 16.7549 23.8545V26.1719C16.7549 26.5137 16.7731 26.8122 16.8096 27.0674C16.8506 27.3226 16.9053 27.5413 16.9736 27.7236C17.0465 27.9014 17.1354 28.0472 17.2402 28.1611C17.3451 28.2705 17.4658 28.3503 17.6025 28.4004C17.7393 28.4505 17.8874 28.4756 18.0469 28.4756C18.2474 28.4756 18.4251 28.4368 18.5801 28.3594C18.735 28.2773 18.8672 28.1475 18.9766 27.9697C19.0905 27.7874 19.1748 27.5482 19.2295 27.252C19.2887 26.9557 19.3184 26.5957 19.3184 26.1719ZM23.0098 25.0303V24.7705C23.0098 24.3057 23.1602 23.9229 23.4609 23.6221C23.7617 23.3213 24.1673 23.1709 24.6777 23.1709C25.2018 23.1709 25.6143 23.3213 25.915 23.6221C26.2158 23.9229 26.3662 24.3057 26.3662 24.7705V25.0303C26.3662 25.4951 26.2158 25.8757 25.915 26.1719C25.6188 26.4635 25.2109 26.6094 24.6914 26.6094C24.1764 26.6094 23.7663 26.4635 23.4609 26.1719C23.1602 25.8757 23.0098 25.4951 23.0098 25.0303ZM34.6445 24.1348V25.9053C34.6445 26.6344 34.5625 27.2656 34.3984 27.7988C34.2389 28.332 34.0065 28.7718 33.7012 29.1182C33.4004 29.4645 33.0404 29.722 32.6211 29.8906C32.2064 30.0547 31.7461 30.1367 31.2402 30.1367C30.8346 30.1367 30.4564 30.0843 30.1055 29.9795C29.7546 29.8747 29.4378 29.7129 29.1553 29.4941C28.8773 29.2708 28.638 28.9928 28.4375 28.6602C28.237 28.3275 28.082 27.931 27.9727 27.4707C27.8678 27.0104 27.8154 26.4886 27.8154 25.9053V24.1348C27.8154 23.3965 27.8952 22.763 28.0547 22.2344C28.2188 21.7057 28.4535 21.2682 28.7588 20.9219C29.0641 20.5755 29.4242 20.3203 29.8389 20.1562C30.2581 19.9922 30.7207 19.9102 31.2266 19.9102C31.6322 19.9102 32.0081 19.9626 32.3545 20.0674C32.7054 20.1722 33.0221 20.334 33.3047 20.5527C33.5872 20.7715 33.8265 21.0472 34.0225 21.3799C34.223 21.7126 34.3757 22.109 34.4805 22.5693C34.5898 23.0251 34.6445 23.5469 34.6445 24.1348ZM32.5117 26.1719V23.8545C32.5117 23.5127 32.4912 23.2165 32.4502 22.9658C32.4137 22.7106 32.359 22.4941 32.2861 22.3164C32.2178 22.1387 32.1312 21.9951 32.0264 21.8857C31.9215 21.7764 31.8008 21.6966 31.6641 21.6465C31.5319 21.5918 31.3861 21.5645 31.2266 21.5645C31.026 21.5645 30.846 21.6055 30.6865 21.6875C30.527 21.7695 30.3926 21.8994 30.2832 22.0771C30.1738 22.2503 30.0895 22.485 30.0303 22.7812C29.9756 23.0729 29.9482 23.4307 29.9482 23.8545V26.1719C29.9482 26.5137 29.9665 26.8122 30.0029 27.0674C30.0439 27.3226 30.0986 27.5413 30.167 27.7236C30.2399 27.9014 30.3288 28.0472 30.4336 28.1611C30.5384 28.2705 30.6592 28.3503 30.7959 28.4004C30.9326 28.4505 31.0807 28.4756 31.2402 28.4756C31.4408 28.4756 31.6185 28.4368 31.7734 28.3594C31.9284 28.2773 32.0605 28.1475 32.1699 27.9697C32.2839 27.7874 32.3682 27.5482 32.4229 27.252C32.4821 26.9557 32.5117 26.5957 32.5117 26.1719ZM36.2031 25.0303V24.7705C36.2031 24.3057 36.3535 23.9229 36.6543 23.6221C36.9551 23.3213 37.3607 23.1709 37.8711 23.1709C38.3952 23.1709 38.8076 23.3213 39.1084 23.6221C39.4092 23.9229 39.5596 24.3057 39.5596 24.7705V25.0303C39.5596 25.4951 39.4092 25.8757 39.1084 26.1719C38.8122 26.4635 38.4043 26.6094 37.8848 26.6094C37.3698 26.6094 36.9596 26.4635 36.6543 26.1719C36.3535 25.8757 36.2031 25.4951 36.2031 25.0303ZM45.9854 20.04V30H43.8457V22.4736L41.5352 23.1777V21.5234L45.7734 20.04H45.9854ZM55.9932 28.3389V30H49.1162V28.5918L52.3291 25.1875C52.6299 24.8411 52.8691 24.5358 53.0469 24.2715C53.2292 24.0072 53.3613 23.7679 53.4434 23.5537C53.5254 23.335 53.5664 23.1344 53.5664 22.9521C53.5664 22.6559 53.5186 22.4053 53.4229 22.2002C53.3317 21.9951 53.1973 21.8379 53.0195 21.7285C52.8418 21.6191 52.6253 21.5645 52.3701 21.5645C52.0967 21.5645 51.862 21.6351 51.666 21.7764C51.4701 21.9176 51.3197 22.1136 51.2148 22.3643C51.11 22.6104 51.0576 22.8906 51.0576 23.2051H48.9111C48.9111 22.599 49.057 22.0475 49.3486 21.5508C49.6403 21.0495 50.0482 20.6507 50.5723 20.3545C51.0964 20.0537 51.7093 19.9033 52.4111 19.9033C53.1312 19.9033 53.735 20.0173 54.2227 20.2451C54.7103 20.473 55.0794 20.7988 55.3301 21.2227C55.5807 21.6465 55.7061 22.1569 55.7061 22.7539C55.7061 23.0911 55.6514 23.417 55.542 23.7314C55.4372 24.0459 55.2845 24.3581 55.084 24.668C54.8835 24.9779 54.6419 25.2946 54.3594 25.6182C54.0768 25.9372 53.7578 26.2744 53.4023 26.6299L51.8984 28.3389H55.9932Z" fill="white"/>
</svg>
